<svg xmlns="http://www.w3.org/2000/svg" width="1351" height="610" viewBox="0 0 1351 610"><rect width="100%" height="100%" fill="#DDDDDD"/><path fill="#999999" d="M326.38 347.77h20.67v14.71h-63.6v-14.71h23.29v-67.02q0-3.97.24-8.18l-16.54 13.83q-1.43 1.11-2.82 1.39-1.39.28-2.62.04-1.24-.24-2.19-.84-.95-.59-1.43-1.31l-6.2-8.5 35.06-29.82h16.14v100.41Zm49.52-66.38-10.33-1.83q1.19-8.27 4.61-14.51 3.42-6.24 8.55-10.41 5.12-4.18 11.76-6.28 6.64-2.11 14.27-2.11 7.95 0 14.35 2.27 6.4 2.26 10.93 6.28 4.53 4.01 6.96 9.42 2.42 5.4 2.42 11.68 0 5.49-1.23 9.66-1.23 4.18-3.54 7.28-2.3 3.1-5.72 5.25-3.42 2.14-7.71 3.57 10.33 3.26 15.42 9.94t5.09 16.77q0 8.59-3.18 15.19t-8.59 11.09q-5.4 4.49-12.52 6.8-7.11 2.3-15.06 2.3-8.67 0-15.11-1.99-6.44-1.98-11.21-5.88-4.77-3.89-8.11-9.54-3.34-5.64-5.72-13.04l8.67-3.57q3.41-1.44 6.4-.76 2.98.68 4.33 3.22 1.43 2.78 3.14 5.49 1.71 2.7 4.09 4.81 2.39 2.1 5.61 3.41 3.22 1.32 7.67 1.32 5.01 0 8.74-1.63 3.74-1.63 6.24-4.26 2.51-2.62 3.74-5.84 1.23-3.22 1.23-6.48 0-4.13-.87-7.51-.88-3.38-3.66-5.77-2.78-2.38-7.99-3.73-5.21-1.35-13.95-1.35v-14q7.23-.08 12-1.35t7.6-3.54q2.82-2.26 3.93-5.44 1.11-3.18 1.11-7 0-8.11-4.53-12.32-4.53-4.21-12.08-4.21-3.5 0-6.44.99-2.94.99-5.29 2.78-2.34 1.79-3.93 4.18-1.59 2.38-2.39 5.24-1.35 3.66-3.53 4.85-2.19 1.2-6.17.56Zm109.63-16.06-4.05 23.93q3.82-.79 7.31-1.15 3.5-.36 6.76-.36 9.06 0 15.98 2.7 6.92 2.71 11.61 7.48 4.69 4.77 7.07 11.17 2.39 6.4 2.39 13.79 0 9.14-3.22 16.69-3.22 7.56-8.95 12.92-5.72 5.37-13.55 8.31-7.83 2.94-17.05 2.94-5.41 0-10.26-1.11t-9.1-2.98q-4.25-1.87-7.87-4.3-3.62-2.42-6.48-5.12l6.04-8.35q1.91-2.7 5.01-2.7 1.99 0 4.05 1.27 2.07 1.27 4.73 2.78 2.67 1.51 6.29 2.78 3.61 1.28 8.7 1.28 5.41 0 9.54-1.75 4.13-1.75 6.88-4.89 2.74-3.14 4.13-7.48 1.39-4.33 1.39-9.42 0-9.38-5.44-14.66-5.45-5.29-16.1-5.29-8.19 0-16.78 3.02l-12.24-3.5 9.54-55.81h56.76v8.35q0 4.21-2.62 6.84-2.62 2.62-8.9 2.62h-31.57Zm117.51 82.44h20.67v14.71h-63.6v-14.71h23.29v-67.02q0-3.97.24-8.18L567.1 286.4q-1.43 1.11-2.82 1.39-1.39.28-2.62.04-1.24-.24-2.19-.84-.95-.59-1.43-1.31l-6.2-8.5 35.06-29.82h16.14v100.41Zm152.87-11.6-10.41 10.25-26.95-26.95-27.19 27.11-10.41-10.26 27.18-27.26-25.91-25.92 10.33-10.34 25.92 25.92 25.76-25.76 10.49 10.34-25.84 25.84 27.03 27.03Zm122.83-88.65-34.1 41.74-3.98 4.93q3.34-1.67 7.2-2.58 3.85-.92 8.3-.92 6.52 0 12.68 2.15 6.16 2.14 10.86 6.48 4.69 4.33 7.55 10.77 2.86 6.44 2.86 15.02 0 8.03-2.94 15.07-2.94 7.04-8.27 12.28-5.33 5.25-12.84 8.27-7.51 3.02-16.57 3.02-9.23 0-16.54-2.94-7.31-2.94-12.48-8.23-5.17-5.28-7.91-12.72-2.75-7.43-2.75-16.49 0-8.11 3.3-16.66t10.22-17.77l27.43-36.81q1.43-1.9 4.17-3.26 2.74-1.35 6.32-1.35h17.49Zm-29.65 100.17q4.69 0 8.62-1.59 3.94-1.59 6.76-4.45 2.82-2.86 4.41-6.72 1.59-3.85 1.59-8.38 0-4.93-1.51-8.87-1.51-3.93-4.29-6.68-2.78-2.74-6.68-4.17-3.89-1.43-8.58-1.43-4.69 0-8.51 1.59-3.82 1.59-6.52 4.41-2.7 2.82-4.21 6.68-1.51 3.85-1.51 8.31 0 4.77 1.31 8.7 1.31 3.94 3.89 6.72 2.59 2.78 6.4 4.33 3.82 1.55 8.83 1.55Zm107.88.08h20.67v14.71h-63.6v-14.71h23.29v-67.02q0-3.97.24-8.18l-16.53 13.83q-1.44 1.11-2.83 1.39-1.39.28-2.62.04-1.23-.24-2.19-.84-.95-.59-1.43-1.31l-6.2-8.5 35.06-29.82h16.14v100.41ZM1075.82 305q0 15.03-3.22 26.12-3.22 11.09-8.9 18.32-5.69 7.24-13.44 10.77-7.75 3.54-16.73 3.54-8.99 0-16.66-3.54-7.67-3.53-13.31-10.77-5.65-7.23-8.83-18.32-3.18-11.09-3.18-26.12 0-15.1 3.18-26.15 3.18-11.05 8.83-18.29 5.64-7.23 13.31-10.77 7.67-3.54 16.66-3.54 8.98 0 16.73 3.54t13.44 10.77q5.68 7.24 8.9 18.29 3.22 11.05 3.22 26.15Zm-20.27 0q0-12.48-1.83-20.67-1.83-8.19-4.89-13.04-3.06-4.85-7.03-6.79-3.98-1.95-8.27-1.95-4.22 0-8.15 1.95-3.94 1.94-6.96 6.79t-4.81 13.04q-1.79 8.19-1.79 20.67 0 12.48 1.79 20.67 1.79 8.19 4.81 13.04 3.02 4.85 6.96 6.8 3.93 1.94 8.15 1.94 4.29 0 8.27-1.94 3.97-1.95 7.03-6.8t4.89-13.04q1.83-8.19 1.83-20.67Z"/></svg>