<svg xmlns="http://www.w3.org/2000/svg" width="615" height="218" viewBox="0 0 615 218"><rect width="100%" height="100%" fill="#DDDDDD"/><path fill="#999999" d="m159.985 79.35-17.59 21.53-2.05 2.54q1.72-.86 3.71-1.33 1.99-.47 4.28-.47 3.36 0 6.54 1.1 3.18 1.11 5.6 3.35 2.42 2.23 3.89 5.55 1.48 3.32 1.48 7.75 0 4.14-1.52 7.77t-4.26 6.33q-2.75 2.71-6.62 4.27-3.88 1.56-8.55 1.56-4.76 0-8.53-1.52-3.77-1.52-6.44-4.24-2.66-2.73-4.08-6.56-1.41-3.84-1.41-8.51 0-4.18 1.7-8.59t5.27-9.17l14.14-18.98q.74-.98 2.16-1.68 1.41-.7 3.26-.7h9.02Zm-15.3 51.66q2.42 0 4.45-.82 2.03-.82 3.49-2.29 1.45-1.48 2.27-3.47.82-1.99.82-4.32 0-2.54-.78-4.57-.78-2.03-2.21-3.45-1.44-1.41-3.45-2.15-2-.74-4.42-.74t-4.39.82q-1.97.82-3.36 2.28-1.4 1.45-2.18 3.44-.77 1.99-.77 4.29 0 2.46.67 4.49.68 2.02 2.01 3.46 1.33 1.44 3.3 2.23 1.97.8 4.55.8Zm55.64.05h10.66v7.58h-32.8v-7.58h12.01V96.49q0-2.05.13-4.22l-8.53 7.13q-.74.58-1.46.72t-1.35.02q-.64-.12-1.13-.43-.49-.31-.74-.68l-3.19-4.38 18.08-15.38h8.32v51.79Zm34.52-42.52-2.09 12.34q1.97-.41 3.77-.6 1.81-.18 3.49-.18 4.67 0 8.24 1.39 3.57 1.4 5.98 3.86 2.42 2.46 3.65 5.76t1.23 7.11q0 4.72-1.66 8.61-1.66 3.9-4.61 6.66-2.95 2.77-6.99 4.29t-8.79 1.52q-2.79 0-5.29-.58-2.5-.57-4.7-1.54-2.19-.96-4.06-2.21-1.86-1.25-3.34-2.64l3.12-4.31q.98-1.39 2.58-1.39 1.03 0 2.09.65 1.07.66 2.44 1.44 1.37.78 3.24 1.43 1.87.66 4.49.66 2.79 0 4.92-.9t3.55-2.52q1.41-1.62 2.13-3.86.72-2.23.72-4.86 0-4.83-2.81-7.56-2.81-2.73-8.31-2.73-4.22 0-8.65 1.56l-6.31-1.8 4.92-28.79h29.27v4.31q0 2.17-1.35 3.52-1.35 1.36-4.59 1.36h-16.28Zm91.88 36.53-5.37 5.29-13.9-13.9-14.02 13.98-5.37-5.29 14.02-14.06-13.36-13.37 5.33-5.33 13.36 13.37 13.29-13.29 5.41 5.33-13.33 13.33 13.94 13.94Zm49.37 4.14h15.21q1.64 0 2.6.92.96.93.96 2.44v6.07h-40.67v-3.36q0-1.03.43-2.15.43-1.13 1.38-2.03l18-18.04q2.25-2.3 4.03-4.39 1.79-2.09 2.98-4.14t1.82-4.16q.64-2.12.64-4.45 0-2.13-.62-3.75-.61-1.62-1.74-2.73-1.13-1.11-2.71-1.66-1.58-.55-3.54-.55-1.81 0-3.35.51-1.53.51-2.72 1.43-1.19.93-2.01 2.16-.82 1.23-1.23 2.7-.7 1.89-1.8 2.5-1.11.62-3.2.29l-5.33-.94q.61-4.27 2.38-7.49 1.76-3.21 4.4-5.37 2.65-2.15 6.07-3.24 3.42-1.08 7.36-1.08 4.1 0 7.5 1.21 3.41 1.21 5.83 3.42 2.41 2.22 3.77 5.33 1.35 3.12 1.35 6.93 0 3.28-.96 6.07-.97 2.79-2.59 5.33-1.62 2.54-3.79 4.92t-4.55 4.84l-13.37 13.65q1.93-.57 3.84-.88 1.9-.31 3.63-.31Zm54.32 1.85h10.66v7.58h-32.8v-7.58h12.01V96.49q0-2.05.13-4.22l-8.53 7.13q-.74.58-1.46.72-.71.14-1.35.02-.63-.12-1.13-.43-.49-.31-.73-.68l-3.2-4.38 18.08-15.38h8.32v51.79Zm39.57.32q2.5 0 4.38-.71 1.89-.72 3.18-1.99 1.29-1.27 1.95-3.04.65-1.76.65-3.81 0-4.88-2.7-7.38-2.71-2.5-7.46-2.5-4.76 0-7.47 2.5-2.7 2.5-2.7 7.38 0 2.05.65 3.81.66 1.77 1.95 3.04t3.18 1.99q1.89.71 4.39.71Zm0-45.06q-2.26 0-3.9.7-1.64.7-2.73 1.87-1.08 1.16-1.59 2.68-.52 1.52-.52 3.2 0 1.76.43 3.42t1.46 2.96q1.02 1.29 2.71 2.07 1.68.77 4.14.77t4.14-.77q1.68-.78 2.7-2.07 1.03-1.3 1.46-2.96.43-1.66.43-3.42 0-1.68-.53-3.2-.54-1.52-1.6-2.68-1.07-1.17-2.71-1.87-1.64-.7-3.89-.7Zm10 21.41q5.41 1.76 8 5.39 2.58 3.63 2.58 8.87 0 3.94-1.5 7.14-1.49 3.2-4.2 5.45-2.71 2.26-6.5 3.49-3.79 1.23-8.38 1.23-4.6 0-8.39-1.23-3.79-1.23-6.5-3.49-2.7-2.25-4.2-5.45t-1.5-7.14q0-5.24 2.59-8.87 2.58-3.63 7.99-5.39-4.3-1.81-6.46-5.13-2.15-3.32-2.15-7.99 0-3.37 1.38-6.28 1.37-2.91 3.83-5.06 2.46-2.15 5.88-3.36 3.43-1.21 7.53-1.21t7.52 1.21q3.42 1.21 5.88 3.36t3.84 5.06q1.37 2.91 1.37 6.28 0 4.67-2.15 7.99-2.15 3.32-6.46 5.13Z"/></svg>